<?xml version="1.0" encoding="UTF-8" standalone="no"?><!DOCTYPE svg PUBLIC "-//W3C//DTD SVG 1.1//EN" "http://www.w3.org/Graphics/SVG/1.1/DTD/svg11.dtd">
<svg width="100%" height="100%" viewBox="0 0 148 80" version="1.1"
  xmlns="http://www.w3.org/2000/svg"
  xmlns:xlink="http://www.w3.org/1999/xlink" xml:space="preserve"
  xmlns:serif="http://www.serif.com/" style="fill-rule:evenodd;clip-rule:evenodd;stroke-linejoin:round;stroke-miterlimit:2;">
  <path d="M39.326,20.884l24.76,0l0,1.973l-22.49,0l0,14.843l21.149,0l0,1.973l-21.149,0l0,16.297l22.748,0l0,1.972l-25.018,0l0,-37.058Zm26.978,0l2.631,0l11.658,16.297l11.915,-16.297l16.208,-20.7l-26.627,38.71l13.721,19.048l-2.734,0l-12.483,-17.335l-12.534,17.335l-2.683,0l13.824,-19.048l-12.895,-18.01l-0.001,0Zm30.486,1.973l0,-1.973l28.215,0l0,1.973l-12.998,0l0,35.084l-2.27,0l0,-35.084l-12.946,0l-0.001,0Zm-88.439,-1.973l2.837,0l39.121,58.67l-16.167,-21.612l-23.418,-34.255l-0.104,34.255l-2.269,0l0,-37.058Zm116.427,34.49c-0.465,0 -0.813,-0.36 -0.813,-0.825c0,-0.465 0.348,-0.825 0.812,-0.825c0.469,0 0.811,0.36 0.811,0.825c0,0.465 -0.342,0.825 -0.811,0.825l0.001,0Zm2.229,-2.171l1.215,0c0.017,0.659 0.498,1.102 1.204,1.102c0.789,0 1.236,-0.476 1.236,-1.368l0,-5.65l1.237,0l0,5.655c0,1.607 -0.927,2.533 -2.463,2.533c-1.44,0 -2.428,-0.898 -2.428,-2.272l-0.001,0Zm6.509,-0.071l1.225,0c0.105,0.758 0.845,1.24 1.911,1.24c0.992,0 1.721,-0.516 1.721,-1.224c0,-0.609 -0.463,-0.976 -1.518,-1.224l-1.027,-0.249c-1.44,-0.338 -2.097,-1.037 -2.097,-2.211c0,-1.424 1.159,-2.372 2.897,-2.372c1.618,0 2.8,0.948 2.872,2.294l-1.204,0c-0.116,-0.736 -0.756,-1.197 -1.684,-1.197c-0.977,0 -1.628,0.471 -1.628,1.191c0,0.571 0.42,0.898 1.458,1.142l0.877,0.216c1.634,0.382 2.308,1.047 2.308,2.249c0,1.529 -1.183,2.488 -3.07,2.488c-1.766,0 -2.953,-0.915 -3.041,-2.344l0,0.001Z" style="fill-rule:nonzero;"/>
</svg>
